<?xml version="1.0" encoding="UTF-8" standalone="no"?>
<svg
   xmlns:dc="http://purl.org/dc/elements/1.1/"
   xmlns:cc="http://creativecommons.org/ns#"
   xmlns:rdf="http://www.w3.org/1999/02/22-rdf-syntax-ns#"
   xmlns:svg="http://www.w3.org/2000/svg"
   xmlns="http://www.w3.org/2000/svg"
   xmlns:sodipodi="http://sodipodi.sourceforge.net/DTD/sodipodi-0.dtd"
   xmlns:inkscape="http://www.inkscape.org/namespaces/inkscape"
   width="246"
   height="256"
   viewBox="0 0 71.596248 74.506669"
   version="1.1"
   id="svg8"
   inkscape:version="1.0.1 (1.0.1+r74)"
   sodipodi:docname="podcli.svg">
  <defs
     id="defs2" />
  <sodipodi:namedview
     id="base"
     pagecolor="#ffffff"
     bordercolor="#666666"
     borderopacity="1.0"
     inkscape:pageopacity="0.0"
     inkscape:pageshadow="2"
     inkscape:zoom="1.5766998"
     inkscape:cx="61.203788"
     inkscape:cy="145.02867"
     inkscape:document-units="mm"
     inkscape:current-layer="layer1"
     showgrid="false"
     inkscape:window-width="1920"
     inkscape:window-height="1043"
     inkscape:window-x="1920"
     inkscape:window-y="0"
     inkscape:window-maximized="1"
     units="px"
     inkscape:document-rotation="0" />
  <metadata
     id="metadata5">
    <rdf:RDF>
      <cc:Work
         rdf:about="">
        <dc:format>image/svg+xml</dc:format>
        <dc:type
           rdf:resource="http://purl.org/dc/dcmitype/StillImage" />
        <dc:title></dc:title>
      </cc:Work>
    </rdf:RDF>
  </metadata>
  <g
     inkscape:label="Capa 1"
     inkscape:groupmode="layer"
     id="layer1"
     transform="translate(0,-291.17915)">
    <path
       d="m 41.440825,358.64924 c -0.668226,2.46996 -3.192494,3.04516 -5.6427,3.04516 -2.450078,0 -4.974474,-0.5752 -5.64257,-3.04516 -0.99331,-3.69376 -2.672906,-12.9494 -2.672906,-17.2563 0,-4.5678 4.046258,-5.6844 8.315476,-5.6844 4.269216,0 8.315476,1.1166 8.315476,5.6844 0,4.28104 -1.67232,13.5359 -2.672776,17.2563 z M 27.075579,332.66222 c -2.428768,-2.37876 -3.892422,-5.73939 -3.739884,-9.43275 0.266874,-6.46062 5.508352,-11.68792 11.969608,-11.93804 7.101286,-0.27494 12.966036,5.42234 12.966036,12.4636 0,3.4856 -1.437538,6.64147 -3.75054,8.90693 -0.347562,0.3404 -0.31196,0.90768 0.0816,1.19366 1.209902,0.87896 2.138636,1.9935 2.758918,3.29538 0.226208,0.47476 0.84415,0.60548 1.227702,0.2457 3.745344,-3.51368 6.048598,-8.54714 5.913214,-14.10579 -0.241018,-9.90138 -8.262856,-17.95726 -18.163208,-18.23804 -10.562474,-0.29962 -19.250718,8.20582 -19.250718,18.70216 0,5.37401 2.27792,10.22545 5.91828,13.64115 0.383682,0.36004 1.001886,0.22998 1.228222,-0.24518 0.620282,-1.30202 1.549148,-2.41642 2.75905,-3.29538 0.393556,-0.28586 0.429286,-0.85312 0.08172,-1.1934 z m 8.722546,-37.49165 c -16.08473,0 -29.1041668,13.01698 -29.1041668,29.10418 0,11.69261 6.8345418,21.52241 16.3371808,26.16881 0.562984,0.27518 1.204056,-0.20062 1.108948,-0.81986 -0.309492,-2.01546 -0.564154,-4.02078 -0.702398,-5.76094 -0.019,-0.23854 -0.14928,-0.45292 -0.34795,-0.58624 -6.15865,-4.13252 -10.207769,-11.176 -10.158785,-19.14469 0.07692,-12.50402 10.302097,-22.6919 22.806363,-22.72452 12.637056,-0.033 22.928369,10.23792 22.928369,22.86744 0,8.04679 -4.178269,15.13547 -10.478801,19.21225 -0.1298,1.82382 -0.398754,3.97428 -0.730724,6.13658 -0.0951,0.61936 0.546094,1.09516 1.108948,0.81984 9.480425,-4.63588 16.337183,-14.45074 16.337183,-26.16867 0,-16.0846 -13.016969,-29.10418 -29.104167,-29.10418 z m 0,20.7887 c -4.592482,0 -8.315476,3.72298 -8.315476,8.31548 0,4.59249 3.722994,8.31547 8.315476,8.31547 4.59248,0 8.315476,-3.72298 8.315476,-8.31547 0,-4.5925 -3.722996,-8.31548 -8.315476,-8.31548 z"
       id="path1197-3"
       style="stroke-width:0.129929" />
  </g>
</svg>
